PathFileType  4	(X/Y/Z) C:\Users\antoi\Documents\MyRepositories\mobilecap\ResultsAnalysis
DataRate	CameraRate	NumFrames	NumMarkers	Units	OrigDataRate	OrigDataStartFrame	OrigNumFrames
100.0	100.0	5	51	mm	100.0	1	1321
Frame#	Time	r_knee			r_shank_antsup			r_ankle			r_calc			r_5meta			r_toe			L_knee			L_shank_antsup			L_ankle			L_calc			L_5meta			L_toe			r_sh2			r_sh3			r_sh4			L_sh2			L_sh3			r_thigh1			r_thigh2			r_thigh3			r_thigh4			r_thigh5			L_thigh1			L_thigh2			L_thigh3			L_thigh4			r.ASIS			r.PSIS			L.ASIS			L.PSIS			C7			R_Shoulder			L_Shoulder			R_Sternum			L_Sternum			R_humerus			R_elbow_med			R_elbow_lat			R_forearm			R_wrist_radius			R_wrist_ulna			L_humerus			L_elbow_med			L_elbow_lat			L_forearm			L_wrist_radius			L_wrist_ulna			R_HJC			L_HJC			R_HJC_reg			L_HJC_reg			
		X1	Y1	Z1	X2	Y2	Z2	X3	Y3	Z3	X4	Y4	Z4	X5	Y5	Z5	X6	Y6	Z6	X7	Y7	Z7	X8	Y8	Z8	X9	Y9	Z9	X10	Y10	Z10	X11	Y11	Z11	X12	Y12	Z12	X13	Y13	Z13	X14	Y14	Z14	X15	Y15	Z15	X16	Y16	Z16	X17	Y17	Z17	X18	Y18	Z18	X19	Y19	Z19	X20	Y20	Z20	X21	Y21	Z21	X22	Y22	Z22	X23	Y23	Z23	X24	Y24	Z24	X25	Y25	Z25	X26	Y26	Z26	X27	Y27	Z27	X28	Y28	Z28	X29	Y29	Z29	X30	Y30	Z30	X31	Y31	Z31	X32	Y32	Z32	X33	Y33	Z33	X34	Y34	Z34	X35	Y35	Z35	X36	Y36	Z36	X37	Y37	Z37	X38	Y38	Z38	X39	Y39	Z39	X40	Y40	Z40	X41	Y41	Z41	X42	Y42	Z42	X43	Y43	Z43	X44	Y44	Z44	X45	Y45	Z45	X46	Y46	Z46	X47	Y47	Z47	X48	Y48	Z48	X49	Y49	Z49	X50	Y50	Z50	X51	Y51	Z51	

1	0.00000000	-189.51194	450.07317	-401.23310	-131.53783	394.97603	-406.75839	-249.05251	86.29238	-430.59807	-303.74312	58.01561	-476.61321	-143.33750	43.13674	-403.87552	-105.18533	61.28320	-456.40781	-167.43822	451.51965	-794.58936	-114.06199	367.84534	-775.80211	-236.18359	93.56975	-763.81842	-294.25984	55.83023	-715.69620	-137.71463	44.57629	-795.58276	-85.91929	60.19585	-742.32936	-161.84069	286.18203	-404.72676	-200.26811	413.76396	-379.15120	-238.63322	302.86355	-382.19119	-189.32185	394.83936	-816.01184	-217.61857	275.82430	-815.73011	-431.58062	522.36567	-391.98195	-318.56232	514.30906	-390.74065	-302.08296	445.83671	-386.35784	-440.12568	406.68947	-402.80046	-322.77263	403.48518	-413.18332	-442.38889	523.27448	-802.95736	-303.87568	515.47266	-798.18887	-453.49523	410.48026	-804.53014	-316.52642	403.09130	-782.30371	-519.91456	597.06348	-496.43274	-713.68132	535.05157	-572.05702	-515.92334	595.25462	-708.34383	-708.62259	532.71839	-652.21141	-633.38686	1000.06221	-605.64132	-568.49082	972.11634	-465.80475	-567.02182	973.23654	-739.33810	-515.16171	937.97628	-586.23701	-517.39789	929.92438	-614.10921	-491.09714	900.10460	-410.81687	-400.26194	699.45524	-409.36340	-376.64253	737.44619	-359.00847	-291.00958	776.53471	-370.40606	-156.58537	790.68850	-416.84665	-150.37059	755.01589	-404.26743	-503.82268	900.55179	-804.38515	-387.66940	706.02616	-789.68724	-375.33420	746.71068	-841.85138	-270.55439	765.89940	-830.15487	-149.69155	771.98698	-789.97219	-148.79435	732.38012	-796.44044	-553.51889	483.86526	-498.48751	-547.91203	484.20123	-705.91892	-557.39001	510.11904	-524.94294	-548.58240	506.05680	-664.49751	
2	0.01000000	-189.67628	450.08753	-401.01501	-131.67925	394.99282	-406.33279	-249.03442	86.28550	-430.55017	-303.76148	58.02274	-476.57740	-143.35662	43.14447	-403.89500	-105.20044	61.31342	-456.46168	-167.61071	451.52081	-794.59401	-114.19497	367.86881	-776.06369	-236.21200	93.65624	-763.97993	-294.23981	55.96037	-715.85654	-137.72579	44.58263	-795.59149	-85.99655	60.25520	-742.46139	-162.02007	286.18879	-404.40299	-200.71353	413.58893	-378.81796	-238.56994	302.92058	-381.89281	-189.41690	394.80264	-816.03733	-217.68333	275.80179	-815.74079	-431.74420	522.18017	-391.65056	-318.81307	514.32782	-390.46610	-302.33605	445.91287	-386.05545	-440.41484	406.89760	-402.69133	-322.92605	403.63245	-412.72124	-442.54797	523.28795	-803.13914	-304.03086	515.46494	-798.36093	-453.62516	410.45096	-804.52683	-316.60782	403.08620	-782.31394	-519.83402	596.97374	-496.27537	-713.69944	535.14935	-572.03623	-515.83832	595.12540	-708.19126	-708.63140	532.83476	-652.15600	-632.53405	1000.18386	-605.72821	-567.57169	972.06291	-465.91777	-566.12137	973.30394	-739.38820	-514.38266	937.89237	-586.27787	-516.67166	929.92192	-614.19674	-490.35655	900.02053	-411.00969	-399.73511	699.61450	-409.63822	-376.03313	737.35588	-359.18531	-290.28699	776.44012	-370.40295	-155.93133	790.55046	-416.96778	-149.76220	754.63737	-404.44585	-503.04430	900.72949	-804.64492	-386.94557	705.94637	-789.60646	-374.64571	746.82974	-842.14222	-269.93734	765.69095	-829.99707	-149.13002	771.83124	-790.15018	-148.12868	732.22024	-796.58169	-553.61972	483.79323	-498.36797	-547.93520	484.12178	-705.79727	-557.40984	510.02221	-524.81744	-548.58201	505.99050	-664.37508	
3	0.02000000	-189.84112	450.08700	-400.74742	-131.79710	394.94838	-406.06690	-249.03728	86.23623	-430.53513	-303.75971	58.02593	-476.52722	-143.36271	43.12952	-403.89360	-105.20007	61.33397	-456.47246	-167.75976	451.47052	-794.53182	-114.26839	367.86439	-776.16437	-236.19890	93.65006	-764.00049	-294.27923	55.94797	-715.90882	-137.73081	44.58513	-795.57769	-86.00364	60.26878	-742.45570	-162.10812	286.21574	-404.17084	-200.91746	413.62774	-378.47553	-238.57342	303.01980	-381.56385	-189.48473	394.77419	-816.06358	-217.72686	275.77654	-815.75759	-431.77964	522.09365	-391.40646	-318.97136	514.31767	-390.15307	-302.53522	445.82975	-385.89248	-440.56132	406.90326	-402.60680	-323.10255	403.62529	-412.48593	-442.67914	523.26373	-803.24800	-304.13934	515.42826	-798.42483	-453.72602	410.42238	-804.53757	-316.70985	403.11371	-782.33975	-519.84524	596.92722	-496.24537	-713.72289	535.24608	-572.02318	-515.73197	595.03466	-708.03728	-708.64393	532.93235	-652.10973	-631.60339	1000.30380	-605.76969	-566.69157	972.01729	-466.02404	-565.24846	973.37825	-739.51302	-513.61404	937.74106	-586.28726	-515.90018	929.91239	-614.23795	-489.55239	899.97059	-411.11469	-399.14602	699.64666	-409.75523	-375.37276	737.22803	-359.26634	-289.60801	776.29886	-370.44631	-155.27475	790.34370	-417.09256	-149.09932	754.28769	-404.60916	-502.23134	900.72676	-804.67913	-386.44060	706.26575	-790.42525	-373.88022	746.83678	-842.32477	-268.99648	765.63987	-830.25251	-148.47196	771.60614	-790.10755	-147.42689	731.94192	-796.70015	-553.72539	483.77458	-498.26435	-547.94872	484.05758	-705.69116	-557.44710	510.01025	-524.77812	-548.60173	505.98073	-664.25448	
4	0.03000000	-190.00493	450.01131	-400.49306	-131.88907	394.89067	-405.83054	-249.05418	86.15842	-430.53163	-303.74859	58.02120	-476.47832	-143.34672	43.09804	-403.86268	-105.18948	61.32902	-456.43974	-167.86712	451.41672	-794.48297	-114.29354	367.83323	-776.15583	-236.16831	93.55664	-763.91992	-294.34824	55.82890	-715.87195	-137.73091	44.58203	-795.54040	-85.97394	60.25115	-742.37680	-162.14984	286.20325	-403.94193	-200.97713	413.74085	-378.20314	-238.68651	303.10849	-381.20857	-189.52956	394.73182	-816.07431	-217.75256	275.74808	-815.77403	-431.81580	522.01895	-391.23664	-319.07033	514.29039	-389.84313	-302.63288	445.58792	-385.87747	-440.62536	406.80259	-402.50891	-323.30077	403.52102	-412.36348	-442.77143	523.18647	-803.34557	-304.21132	515.38550	-798.43734	-453.79568	410.38003	-804.54406	-316.80402	403.13347	-782.38069	-519.91325	596.87287	-496.28274	-713.71010	535.36346	-572.02038	-515.62054	594.96141	-707.95607	-708.64758	533.00317	-652.07694	-630.63175	1000.41799	-605.76562	-565.80502	972.03348	-466.02186	-564.38923	973.46628	-739.65966	-512.81070	937.54816	-586.28145	-515.05832	929.84328	-614.26020	-488.70112	899.94504	-411.19307	-398.49743	699.52104	-409.73219	-374.67514	737.03477	-359.26662	-288.93275	776.13381	-370.45929	-154.60486	790.04793	-417.20760	-148.38946	753.97665	-404.75121	-501.40443	900.55672	-804.51026	-385.93330	706.65079	-791.33788	-373.11899	746.65620	-842.32665	-267.82965	765.64715	-830.70865	-147.74275	771.33362	-789.95709	-146.68286	731.64606	-796.82098	-553.81589	483.77003	-498.20140	-547.96211	483.99599	-705.62614	-557.48879	510.05688	-524.74287	-548.67359	505.94696	-664.14274	
5	0.04000000	-190.17821	449.85247	-400.34432	-131.98181	394.90358	-405.43626	-249.04088	86.10493	-430.50360	-303.75553	57.99701	-476.46146	-143.32453	43.08065	-403.82531	-105.21584	61.30799	-456.42238	-167.96037	451.38774	-794.44674	-114.30829	367.78805	-776.15343	-236.15067	93.43555	-763.86184	-294.40724	55.70404	-715.83346	-137.73497	44.57286	-795.53258	-85.96334	60.25668	-742.36732	-162.24368	286.10539	-403.64650	-201.05983	413.67804	-378.00512	-238.87211	303.05578	-380.90509	-189.55370	394.66070	-816.06190	-217.76993	275.71476	-815.79451	-431.96826	521.87906	-391.05436	-319.19132	514.25968	-389.60706	-302.71516	445.40064	-385.76480	-440.75341	406.74223	-402.35803	-323.47676	403.45089	-412.17708	-442.83654	523.10386	-803.47047	-304.27858	515.36692	-798.52100	-453.84669	410.32270	-804.56235	-316.85091	403.08445	-782.41122	-519.95296	596.76090	-496.29064	-713.65155	535.48633	-572.02652	-515.52372	594.86689	-707.97443	-708.62516	533.04437	-652.05240	-629.67049	1000.49825	-605.71223	-564.85132	972.10347	-465.93344	-563.50153	973.53475	-739.68218	-511.92061	937.37549	-586.31738	-514.13837	929.68993	-614.33466	-487.84638	899.91574	-411.27871	-397.78562	699.21353	-409.60478	-373.98370	736.81288	-359.24477	-288.19476	775.95139	-370.41783	-153.89322	789.71212	-417.27988	-147.65210	753.75586	-404.78167	-500.56758	900.41314	-804.37964	-385.18736	706.57327	-791.27411	-372.39670	746.38206	-842.20311	-266.80111	765.52794	-830.92415	-146.98317	771.08029	-789.95202	-145.92971	731.48789	-796.95567	-553.87086	483.72209	-498.18144	-547.97912	483.91525	-705.60514	-557.52491	510.07992	-524.65372	-548.76877	505.82591	-664.06163	
